# xmcd
#
# Track frame offsets: 
#        150
#        15212
#        29712
#        45212
#        60610
#        74777
#        88480
#        104472
#        117377
#        130610
#        145427
#        158645
#        171385
#        185380
#        200347
#        212887
#        226435
#        239580
#        251750
#        264980
#        277457
#        289780
#        302205
#        313555
#        325252
#
# Disc length: 4501 seconds
#
# Revision: 2
# Processed by: cddbd v1.5.2PL0 Copyright (c) Steve Scherf et al.
# Submitted via: ExactAudioCopy v1.0b1
#
DISCID=84119319
DTITLE=Various Artist - Memphis Blues (1927-1938)
DYEAR=1993
DGENRE=
TTITLE0=Ollie Rupert - I Raised My Window and Looked at the Rising Sun
TTITLE1=Ollie Rupert - Ain't Goin' to Be Your Lowdown Dog
TTITLE2=Walter Rhodes - The Crowing Rooster
TTITLE3=Walter Rhodes - Leaving Home Blues
TTITLE4=Pearl Dickson - Twelve Pound Daddy
TTITLE5=Pearl Dickson - Litttle Rock Blues
TTITLE6=Madelyn James - Stinging Snake Blues
TTITLE7=Madelyn James - Long Time Blues
TTITLE8=Charlie "Bozo" Nickerson - What's the Matter Now? - Part 1
TTITLE9=Charlie "Bozo" Nickerson - What's the Matter Now? - Part 2
TTITLE10=Charlie "Bozo" Nickerson - Bozo's Blues - Part 1
TTITLE11=Charlie "Bozo" Nickerson - Bozo's Blues - Part 2
TTITLE12=Sam Townsend - I'm Missing That
TTITLE13=Sam Townsend - Lily Kimball Blues
TTITLE14=Hattie Hart - I'm Missing That Thing
TTITLE15=Hattie Hart - I Let My Daddy Do That
TTITLE16=Hattie Hart and Allen Shaw - Coldest Stuff in Town
TTITLE17=Hattie Hart - Happy-Go-Lucky Blues
TTITLE18=George Torey - Married Woman Blues
TTITLE19=George Torey - Lonesome Man Blues
TTITLE20=John Henry Barbee - Six Weeks Old Blues [take 1]
TTITLE21=John Henry Barbee - Six Weeks Old Blues [take 2]
TTITLE22=John Henry Barbee - God Knows I Can't Help It
TTITLE23=John Henry Barbee - You'll Work Down to Me Someday
TTITLE24=John Henry Barbee - Against My Will
EXTD=
EXTT0=
EXTT1=
EXTT2=
EXTT3=
EXTT4=
EXTT5=
EXTT6=
EXTT7=
EXTT8=
EXTT9=
EXTT10=
EXTT11=
EXTT12=
EXTT13=
EXTT14=
EXTT15=
EXTT16=
EXTT17=
EXTT18=
EXTT19=
EXTT20=
EXTT21=
EXTT22=
EXTT23=
EXTT24=
PLAYORDER=
